PathFileType	4	(X/Y/Z)	Patient4_TMGait_0pt5_01_left_41.trc.trc
DataRate	CameraRate	NumFrames	NumMarkers	Units	OrigDataRate	OrigDataStartFrame	OrigNumFrames
75.675675675676	75.675675675676	4	33	mm	75.675675675676	53	       141
Frame#	Time	L.ASIS			Sacral			L.Shoulder			Chest			R.Shoulder			Neck			R.ASIS			R.Thigh.Superior			R.Thigh.Lateral			R.Thigh.Inferior			R.Patella			L.Thigh.Superior			L.Thigh.Lateral			L.Thigh.Inferior			L.Patella			L.Shank.Superior			L.Shank.Lateral			L.Shank.Inferior			R.Shank.Superior			R.Shank.Lateral			R.Shank.Inferior			R.Heel			R.Midfoot.Superior			R.Midfoot.Lateral			R.Toe			L.Heel			L.Midfoot.Lateral			L.Midfoot.Superior			L.Toe			L.Elbow			L.Wrist			R.Elbow			R.Wrist			
		X1	Y1	Z1	X2	Y2	Z2	X3	Y3	Z3	X4	Y4	Z4	X5	Y5	Z5	X6	Y6	Z6	X7	Y7	Z7	X8	Y8	Z8	X9	Y9	Z9	X10	Y10	Z10	X11	Y11	Z11	X12	Y12	Z12	X13	Y13	Z13	X14	Y14	Z14	X15	Y15	Z15	X16	Y16	Z16	X17	Y17	Z17	X18	Y18	Z18	X19	Y19	Z19	X20	Y20	Z20	X21	Y21	Z21	X22	Y22	Z22	X23	Y23	Z23	X24	Y24	Z24	X25	Y25	Z25	X26	Y26	Z26	X27	Y27	Z27	X28	Y28	Z28	X29	Y29	Z29	X30	Y30	Z30	X31	Y31	Z31	X32	Y32	Z32	X33	Y33	Z33	

53	55.317142857143	797.683886894450	964.539177895274	255.378842509631	580.086947875651	1008.361536977512	411.642758827218	750.371748318446	1439.166267739616	229.941823951115	853.971591269913	1372.243854968185	391.603690874774	766.706732804559	1442.511948627513	566.331487377846	746.145522652741	1499.884915208319	381.265633964633	805.860590198805	948.879146507311	530.178548810148	885.338843980819	774.404537014770	509.282123319553	840.328713916985	657.100429069389	586.478208278908	932.441396760063	613.449152278086	511.723615758579	947.880309922686	499.971770977784	537.768686220638	843.074078732165	750.842280090842	286.995278058380	751.009877332968	635.162577998301	235.143931976118	834.748198445385	557.568317831702	298.780692063459	834.322026780435	487.411096273110	312.009037466564	805.954674783130	415.614052447714	307.200618075415	714.819661617869	301.725467045916	260.644217761459	761.278981125382	192.324248172495	335.992516738886	869.085637713504	427.532880722102	543.997730567414	744.204420587194	393.108465590427	599.300265283244	729.640920975357	282.852814327258	554.145204114445	530.289564693648	234.257615280806	517.118040803346	689.429663281105	160.092057560912	569.046432874965	578.771644809394	171.602725506210	595.527308770414	740.408133354690	41.900061405459	603.522787267774	628.451614747275	38.728174948085	382.132028695762	702.237805944747	34.902633251436	301.152226692417	786.215678496193	95.714931529844	326.711724281195	914.477899367936	40.237098877139	298.524695642866	772.600412329735	1093.593085337705	87.172328163056	982.650640451195	937.916924795305	71.050729590399	755.857991797977	1090.533334478508	675.139187286564	870.506382038989	855.840695273141	666.649743600908	
54	55.330357142857	797.662777482291	965.054800821266	254.270754337901	579.076425938509	1009.105098208019	409.889146952909	751.250913492355	1439.691016367329	228.458364737070	853.783200085324	1372.586758494861	390.731115349374	765.718195984672	1443.066434369093	564.903262734387	746.293500820404	1500.440228157672	379.730779201617	804.409370739199	949.789236525232	529.254330747369	885.899692469337	777.778271820596	507.747373648554	843.180777787839	659.812654173564	585.150246856831	935.790215872356	617.735853327255	510.163584716604	953.641585421164	504.693140886872	536.216290197228	840.323703428686	750.071315647502	286.226276062536	746.842527458301	635.362398010121	234.338424256927	829.413799997522	556.921493408442	298.104688298278	828.096890786579	486.985743767939	311.467816029229	799.804930219471	415.544794658688	306.561556325528	708.443444518758	301.778583645749	260.173693273595	754.763906422231	192.360554013757	335.657260225501	876.600919174557	430.585233824373	542.330944733633	752.718104050187	392.475943439449	597.328113768565	741.387478697904	281.941144170923	551.993936234936	543.353452656980	226.519180000731	514.811409339321	705.135935254263	158.628433925493	566.652330674012	594.263362494525	165.903917075355	593.208594870030	760.524430976925	42.760138534554	601.199885875037	621.747475144162	38.799567347964	382.075854262590	695.584578366897	34.907688020998	301.112984302950	779.585625865742	95.709860440838	326.578805614069	907.820610096466	40.191536517291	298.478385260838	777.067815494937	1094.990300956156	84.849547878886	992.726640601428	947.541550799652	68.266841604326	745.831688337599	1092.064646773127	674.616867050506	844.788064810074	849.733575140934	668.752052062252	
55	55.343571428571	797.650318238399	965.528158868950	253.320950871618	578.116612944707	1009.878138838440	408.240880652144	752.212142088530	1440.197655564925	227.095971242429	853.641476182117	1372.907437673049	389.983779781900	764.785807452156	1443.641007182262	563.574869890985	746.462015918900	1500.971646467777	378.305820734848	802.935128815391	950.627997811578	528.439756709797	886.129943247740	780.883307379325	506.400064173702	845.532298256550	662.329439355252	583.947214606770	938.482976923320	621.661519825625	508.681750186993	958.625473305550	509.284331944334	534.788268549412	837.489175510006	749.301966396774	285.742200570825	742.640487748752	635.598275408784	233.608777682236	823.955801839631	556.302396049090	297.545911524377	821.717643717139	486.593535116113	311.003063739115	793.534245239398	415.519926827361	305.963935643547	701.972386561620	301.859552016422	259.724977835899	748.195411671851	192.424701621755	335.324906840124	883.745972324189	433.367229060632	540.811373071745	761.235950390305	390.936925700160	595.606984241669	753.719084509907	280.153479676076	550.070857473264	557.489241486851	216.886315227203	512.864084644836	722.075323620399	156.218843338331	564.506072668341	611.113222494032	158.660378064385	591.222862420141	782.479923160642	43.248566294745	599.089691324540	615.046670610949	38.875422162162	382.019053724283	688.930980131287	34.910846990223	301.076851575932	772.956307603820	95.710377304852	326.443300192087	901.162911479702	40.151809244379	298.441886156440	781.195550359849	1096.313479872832	82.852801169585	1001.988644629876	957.048359126666	65.902018908454	735.575307666494	1093.970566695280	674.244901269162	819.454914046141	845.540915036887	670.746803946900	
56	55.356785714286	797.596106419190	965.920832318116	252.545461039699	577.207217353289	1010.638322209020	406.702311289111	753.247530892921	1440.639377142974	225.853744383947	853.545043766559	1373.170291456588	389.362148044236	763.901555303948	1444.209491768883	562.350785368700	746.657321690684	1501.444736646727	376.984330095417	801.455653356300	951.355683849162	527.745474393770	886.044172595002	783.650780315334	505.226760196734	847.396583817953	664.572622794792	582.868921763984	940.514533922585	625.127511654870	507.260672551528	962.804288607184	513.650760594595	533.464271263889	834.595468850194	748.526535467210	285.480056602005	738.416850615188	635.854519413067	232.933658251769	818.419221105650	555.704580272271	297.054265088856	815.240405752819	486.225760590077	310.573411561916	787.186347613582	415.520667436717	305.385996697287	695.434531038958	301.959352354959	259.283273194716	741.590366557160	192.505472836979	334.985840901184	890.480952175382	435.840144065474	539.439079785942	769.771112187418	388.566456003276	594.175455107568	766.575669805952	277.621173361987	548.424385583855	572.745009905698	205.677799365461	511.343946398755	740.111920931497	153.070392617180	562.684728242134	629.267711387686	150.206087963712	589.657753172878	805.966609959545	43.512720572429	597.295792549522	608.356312844244	38.955878829580	381.958313010127	682.278603453223	34.911139840699	301.042379393751	766.329103204262	95.714198976844	326.304451029019	894.507125340153	40.117474079627	298.413582460616	784.990577591167	1097.510191724654	81.145787938334	1010.440817294517	966.309078214530	63.936624969129	725.058123874552	1096.221570581637	673.984320317231	794.712353158471	843.108432994049	672.630330566904	
